<?xml version="1.0" encoding="UTF-8"?>
<!DOCTYPE svg PUBLIC "-//W3C//DTD SVG 1.1//EN" "http://www.w3.org/Graphics/SVG/1.1/DTD/svg11.dtd">
<!-- Creator: CorelDRAW 2018 (64 Bit Versão de avaliação) -->
<svg xmlns="http://www.w3.org/2000/svg" xml:space="preserve" width="4.4605mm" height="4.9503mm" version="1.1" style="shape-rendering:geometricPrecision; text-rendering:geometricPrecision; image-rendering:optimizeQuality; fill-rule:evenodd; clip-rule:evenodd"
viewBox="0 0 6.47 7.18"
 xmlns:xlink="http://www.w3.org/1999/xlink">
 <defs>
  <style type="text/css">
   <![CDATA[
    .fil0 {fill:white}
   ]]>
  </style>
 </defs>
 <g id="Camada_x0020_1">
  <metadata id="CorelCorpID_0Corel-Layer"/>
  <path class="fil0" d="M3.67 1.95c0.31,-0.15 0.56,-0.39 0.74,-0.69 -0.07,-0.02 -0.12,-0.08 -0.12,-0.16 0,-0.09 0.07,-0.16 0.16,-0.16l0.23 0c0.06,0 0.1,0.03 0.14,0.07 0.03,0.05 0.04,0.1 0.01,0.15 -0.26,0.6 -0.78,1.08 -1.42,1.22l0 0.16c0.04,-0.03 0.08,-0.07 0.12,-0.1 0.07,-0.06 0.17,-0.05 0.23,0.02 0.06,0.07 0.05,0.17 -0.02,0.23 -0.11,0.09 -0.22,0.18 -0.33,0.25l0 0.25c0.04,-0.03 0.08,-0.07 0.12,-0.11 0.07,-0.06 0.17,-0.05 0.23,0.02 0.06,0.07 0.05,0.17 -0.02,0.23 -0.09,0.08 -0.18,0.15 -0.27,0.22 -0.02,0.02 -0.04,0.03 -0.06,0.04l0 0.03 0.51 0c0.09,0 0.16,0.07 0.16,0.16 0,0.09 -0.07,0.16 -0.16,0.16l-1.53 0c-0.01,0 -0.02,-0 -0.03,-0 -0.24,-0.02 -0.45,-0.13 -0.56,-0.41 -0.03,-0.08 0.01,-0.18 0.09,-0.21 0.08,-0.03 0.18,0.01 0.21,0.09 0.03,0.08 0.08,0.14 0.16,0.18 0.04,0.02 0.09,0.03 0.14,0.03l0.05 0c0.13,-0.01 0.28,-0.05 0.38,-0.09 0.09,-0.04 0.18,-0.08 0.26,-0.12l0 -0.28c-0.12,0.06 -0.23,0.12 -0.36,0.17 -0.08,0.03 -0.18,-0.01 -0.21,-0.09 -0.03,-0.08 0.01,-0.18 0.09,-0.21 0.17,-0.07 0.33,-0.15 0.48,-0.24l0 -0.3c-0.1,0.06 -0.2,0.12 -0.3,0.17 -0.08,0.04 -0.18,0.01 -0.22,-0.07 -0.04,-0.08 -0.01,-0.18 0.07,-0.22 0.46,-0.23 0.79,-0.53 1.07,-0.96 0.02,-0.04 0.05,-0.08 0.07,-0.12l-1.7 0c0.15,0.25 0.36,0.47 0.62,0.63 0.08,0.05 0.1,0.14 0.06,0.22 -0.05,0.08 -0.14,0.1 -0.22,0.06 -0.39,-0.23 -0.69,-0.59 -0.87,-1 -0.02,-0.05 -0.02,-0.11 0.01,-0.15 0.03,-0.05 0.08,-0.07 0.14,-0.07l2.07 0c0.01,-0.04 0.01,-0.08 0.01,-0.12 -0,-0.14 -0.04,-0.28 -0.14,-0.37 -0.13,-0.13 -0.32,-0.14 -0.49,-0.1 -0.11,0.03 -0.1,0.03 -0.19,0.12 -0.08,0.11 -0.28,0.15 -0.42,0.16 -0.05,0 -0.13,-0 -0.15,-0.05 -0.04,-0.1 0.12,-0.26 0.2,-0.32 0.05,-0.04 0.2,-0.14 0.3,-0.17 0.33,-0.12 0.7,-0.12 0.97,0.14 0.16,0.16 0.23,0.38 0.23,0.6 0,0.26 -0.09,0.51 -0.23,0.73 -0.09,0.14 -0.19,0.28 -0.3,0.4zm-1.76 2.33c0.12,0 0.22,0.1 0.22,0.22 0,0.12 -0.1,0.22 -0.22,0.22 -0.12,0 -0.22,-0.1 -0.22,-0.22 0,-0.12 0.1,-0.22 0.22,-0.22zm0.19 1.38c0,-0.22 0,-0.44 0,-0.65 0,-0.06 0,-0.12 0,-0.18 -0.13,0 -0.26,0 -0.39,0 0,0.19 0,0.38 0,0.57 0,0.09 0,0.17 0,0.26 0,0.09 0,0.17 0,0.26 0,0.21 0.17,0.39 0.39,0.39 0.05,0 0.09,0 0.14,0 0,-0.12 0,-0.24 0,-0.37 -0,0 -0.01,0 -0.01,0 0,0 0,0 0,0 -0.17,-0 -0.13,-0.1 -0.13,-0.29zm4.37 0.65l-0.39 0 0 -0.2c-0.13,0.14 -0.32,0.23 -0.52,0.23l0 0c-0.39,0 -0.72,-0.32 -0.72,-0.72l0 -0.11c0,-0.39 0.32,-0.72 0.72,-0.72l0 0c0.22,0 0.4,0.08 0.52,0.21l0 -0.17 0.39 0 0 1.48zm-0.83 -1.2c0.25,0 0.44,0.2 0.44,0.45 0,0.25 -0.2,0.45 -0.44,0.45 -0.24,0 -0.44,-0.2 -0.44,-0.45 0,-0.25 0.2,-0.45 0.44,-0.45zm-1.2 -0.83c0.12,0 0.22,0.1 0.22,0.22 0,0.12 -0.1,0.22 -0.22,0.22 -0.12,0 -0.22,-0.1 -0.22,-0.22 0,-0.12 0.1,-0.22 0.22,-0.22zm0.19 1.38c0,-0.22 0,-0.44 0,-0.65 0,-0.06 0,-0.12 0,-0.18 -0.13,0 -0.26,0 -0.39,0 0,0.19 0,0.38 0,0.57 0,0.09 0,0.17 0,0.26 0,0.09 0,0.17 0,0.26 0,0.21 0.17,0.39 0.39,0.39 0.05,0 0.09,0 0.14,0 0,-0.12 0,-0.24 0,-0.37 -0,0 -0.01,0 -0.01,0 0,0 0,0 0,0 -0.17,-0 -0.13,-0.1 -0.13,-0.29zm-0.7 0.89c0,0 0,0 0,0 -0,-0.25 -0.12,-0.39 -0.3,-0.47 0.13,-0.08 0.22,-0.18 0.27,-0.32 0.04,-0.11 0.03,-0.25 0.02,-0.37 -0,-0.15 -0.02,-0.24 0.13,-0.24 0,0 0,0 0,0 0,0 0.01,0 0.01,0 0,-0.12 0,-0.2 0,-0.32 -0.05,0 -0.09,0 -0.14,0 -0.12,0 -0.2,0.05 -0.26,0.13 -0.13,-0.11 -0.3,-0.18 -0.48,-0.18 -0.41,0 -0.74,0.33 -0.74,0.74 0,0.41 0.24,0.74 0.74,0.74l0 0c0.21,-0 0.38,0.09 0.39,0.29 0,0.19 -0.17,0.29 -0.39,0.29 -0.21,0 -0.39,-0.13 -0.39,-0.29l-0.36 0c-0,0.01 -0,0.02 -0,0.03 0,0 0,0 0,0 0.04,0.44 0.41,0.62 0.78,0.61 0.35,-0.01 0.71,-0.24 0.71,-0.63zm-0.74 -1.43c0.22,0 0.39,0.18 0.39,0.41 0,0.23 -0.18,0.41 -0.39,0.41 -0.22,0 -0.39,-0.18 -0.39,-0.41 0,-0.23 0.18,-0.41 0.39,-0.41zm-2.11 1.19c0.12,0 0.25,0 0.37,0 0,-0.23 0,-0.46 0,-0.69 0,-0.05 0,-0.1 0,-0.15 0,-0.02 0,-0.04 0,-0.06 0,-0.33 -0.27,-0.6 -0.6,-0.6 0,0 0,0 0,0 -0.18,0 -0.34,0.08 -0.45,0.2 0,-0.25 0,-0.5 0,-0.75 -0.13,0 -0.26,0 -0.39,0 0,0.68 0,1.36 0,2.04 0.13,0 0.26,0 0.39,0 0,-0.23 0,-0.46 0,-0.69 0,-0.04 0,-0.08 0,-0.12 0,-0.2 0.16,-0.36 0.36,-0.36 0,0 0,0 0,0 0.08,0 0.15,0.02 0.21,0.07 0.13,0.09 0.12,0.2 0.12,0.29 0,0.27 0,0.54 0,0.81z"/>
 </g>
</svg>
