<?xml version="1.0" encoding="UTF-8"?>
<!DOCTYPE svg PUBLIC "-//W3C//DTD SVG 1.1//EN" "http://www.w3.org/Graphics/SVG/1.1/DTD/svg11.dtd">
<!-- Creator: CorelDRAW 2018 (64 Bit Versão de avaliação) -->
<svg xmlns="http://www.w3.org/2000/svg" xml:space="preserve" width="4.4605mm" height="4.9503mm" version="1.1" style="shape-rendering:geometricPrecision; text-rendering:geometricPrecision; image-rendering:optimizeQuality; fill-rule:evenodd; clip-rule:evenodd"
viewBox="0 0 6.23 6.92"
 xmlns:xlink="http://www.w3.org/1999/xlink">
 <defs>
  <style type="text/css">
   <![CDATA[
    .fil0 {fill:#00AE71}
   ]]>
  </style>
 </defs>
 <g id="Camada_x0020_1">
  <metadata id="CorelCorpID_0Corel-Layer"/>
  <path class="fil0" d="M3.54 1.88c0.3,-0.14 0.54,-0.38 0.71,-0.67 -0.07,-0.02 -0.12,-0.08 -0.12,-0.15 0,-0.09 0.07,-0.16 0.16,-0.16l0.22 0c0.05,0 0.1,0.03 0.13,0.07 0.03,0.05 0.03,0.1 0.01,0.15 -0.25,0.58 -0.75,1.04 -1.37,1.17l0 0.15c0.04,-0.03 0.08,-0.06 0.12,-0.1 0.07,-0.06 0.16,-0.05 0.22,0.02 0.06,0.07 0.05,0.16 -0.02,0.22 -0.1,0.09 -0.21,0.17 -0.32,0.24l0 0.24c0.04,-0.03 0.08,-0.07 0.12,-0.1 0.07,-0.06 0.16,-0.05 0.22,0.02 0.06,0.07 0.05,0.16 -0.02,0.22 -0.09,0.07 -0.17,0.15 -0.26,0.21 -0.02,0.01 -0.04,0.03 -0.06,0.04l0 0.03 0.49 0c0.09,0 0.16,0.07 0.16,0.16 0,0.09 -0.07,0.16 -0.16,0.16l-1.47 0c-0.01,0 -0.02,-0 -0.03,-0 -0.23,-0.01 -0.43,-0.12 -0.54,-0.39 -0.03,-0.08 0.01,-0.17 0.08,-0.2 0.08,-0.03 0.17,0.01 0.2,0.08 0.03,0.07 0.08,0.14 0.15,0.17 0.04,0.02 0.09,0.03 0.14,0.03l0.04 0c0.13,-0 0.27,-0.05 0.37,-0.09 0.09,-0.04 0.17,-0.07 0.25,-0.12l0 -0.27c-0.11,0.06 -0.23,0.11 -0.34,0.16 -0.08,0.03 -0.17,-0.01 -0.2,-0.09 -0.03,-0.08 0.01,-0.17 0.09,-0.2 0.16,-0.07 0.31,-0.14 0.46,-0.23l0 -0.29c-0.09,0.06 -0.19,0.11 -0.29,0.16 -0.08,0.04 -0.17,0.01 -0.21,-0.07 -0.04,-0.08 -0.01,-0.17 0.07,-0.21 0.44,-0.22 0.76,-0.51 1.03,-0.93 0.02,-0.04 0.04,-0.07 0.06,-0.11l-1.64 0c0.15,0.25 0.35,0.46 0.6,0.6 0.07,0.04 0.1,0.14 0.06,0.21 -0.04,0.07 -0.14,0.1 -0.21,0.06 -0.38,-0.22 -0.66,-0.57 -0.84,-0.97 -0.02,-0.05 -0.02,-0.1 0.01,-0.15 0.03,-0.05 0.08,-0.07 0.13,-0.07l1.99 0c0.01,-0.04 0.01,-0.07 0.01,-0.11 -0,-0.13 -0.04,-0.27 -0.13,-0.36 -0.13,-0.13 -0.31,-0.14 -0.47,-0.1 -0.11,0.02 -0.1,0.03 -0.18,0.11 -0.08,0.1 -0.27,0.15 -0.4,0.15 -0.04,0 -0.12,-0 -0.14,-0.05 -0.04,-0.1 0.12,-0.25 0.19,-0.31 0.05,-0.04 0.19,-0.13 0.29,-0.16 0.32,-0.12 0.68,-0.12 0.93,0.13 0.15,0.15 0.22,0.37 0.22,0.58 0,0.25 -0.09,0.49 -0.22,0.7 -0.09,0.14 -0.18,0.27 -0.29,0.38zm-1.69 2.24c0.11,0 0.21,0.09 0.21,0.21 0,0.11 -0.09,0.21 -0.21,0.21 -0.11,0 -0.21,-0.09 -0.21,-0.21 0,-0.11 0.09,-0.21 0.21,-0.21zm0.18 1.33c0,-0.21 0,-0.42 0,-0.63 0,-0.06 0,-0.12 0,-0.17 -0.13,0 -0.25,0 -0.38,0 0,0.18 0,0.37 0,0.55 0,0.08 0,0.17 0,0.25 0,0.08 0,0.17 0,0.25 0,0.21 0.17,0.38 0.38,0.38 0.05,0 0.09,0 0.14,0 0,-0.12 0,-0.24 0,-0.35 -0,0 -0.01,0 -0.01,0 0,0 0,0 0,0 -0.16,-0 -0.13,-0.1 -0.13,-0.28zm4.21 0.63l-0.38 0 0 -0.19c-0.13,0.13 -0.31,0.22 -0.5,0.22l0 0c-0.38,0 -0.69,-0.31 -0.69,-0.69l0 -0.11c0,-0.38 0.31,-0.69 0.69,-0.69l0 0c0.21,0 0.38,0.08 0.5,0.2l0 -0.17 0.38 0 0 1.43zm-0.8 -1.15c0.24,0 0.43,0.2 0.43,0.44 0,0.24 -0.19,0.44 -0.43,0.44 -0.24,0 -0.43,-0.2 -0.43,-0.44 0,-0.24 0.19,-0.44 0.43,-0.44zm-1.16 -0.8c0.11,0 0.21,0.09 0.21,0.21 0,0.11 -0.09,0.21 -0.21,0.21 -0.11,0 -0.21,-0.09 -0.21,-0.21 0,-0.11 0.09,-0.21 0.21,-0.21zm0.18 1.33c0,-0.21 0,-0.42 0,-0.63 0,-0.06 0,-0.12 0,-0.17 -0.13,0 -0.25,0 -0.38,0 0,0.18 0,0.37 0,0.55 0,0.08 0,0.17 0,0.25 0,0.08 0,0.17 0,0.25 0,0.21 0.17,0.38 0.38,0.38 0.05,0 0.09,0 0.14,0 0,-0.12 0,-0.24 0,-0.35 -0,0 -0,0 -0.01,0 0,0 0,0 0,0 -0.16,-0 -0.13,-0.1 -0.13,-0.28zm-0.68 0.86c0,0 0,0 0,0 -0,-0.24 -0.11,-0.38 -0.29,-0.45 0.12,-0.08 0.22,-0.18 0.26,-0.31 0.03,-0.11 0.03,-0.24 0.02,-0.36 -0,-0.15 -0.02,-0.23 0.13,-0.23 0,0 0,0 0,0 0,0 0,0 0.01,0 0,-0.12 0,-0.19 0,-0.31 -0.05,0 -0.09,0 -0.14,0 -0.11,0 -0.19,0.05 -0.25,0.13 -0.12,-0.11 -0.29,-0.17 -0.47,-0.17 -0.39,0 -0.71,0.32 -0.71,0.71 0,0.39 0.23,0.71 0.71,0.71l0 0c0.21,-0 0.37,0.09 0.37,0.27 0,0.19 -0.17,0.28 -0.37,0.28 -0.21,0 -0.37,-0.12 -0.37,-0.28l-0.35 0c-0,0.01 -0,0.02 -0,0.03 0,0 0,0 0,0 0.04,0.42 0.4,0.6 0.76,0.59 0.34,-0.01 0.69,-0.23 0.69,-0.61zm-0.71 -1.38c0.21,0 0.38,0.18 0.38,0.4 0,0.22 -0.17,0.4 -0.38,0.4 -0.21,0 -0.38,-0.18 -0.38,-0.4 0,-0.22 0.17,-0.4 0.38,-0.4zm-2.03 1.14c0.12,0 0.24,0 0.36,0 0,-0.22 0,-0.44 0,-0.66 0,-0.05 0,-0.09 0,-0.14 0,-0.02 0,-0.04 0,-0.06 0,-0.32 -0.26,-0.58 -0.58,-0.58 0,0 0,0 0,0 -0.17,0 -0.33,0.08 -0.44,0.2 0,-0.24 0,-0.48 0,-0.72 -0.13,0 -0.25,0 -0.38,0 0,0.66 0,1.31 0,1.97 0.13,0 0.25,0 0.38,0 0,-0.22 0,-0.44 0,-0.66 0,-0.04 0,-0.07 0,-0.11 0,-0.19 0.16,-0.35 0.35,-0.35 0,0 0,0 0,0 0.07,0 0.14,0.02 0.2,0.06 0.12,0.09 0.11,0.19 0.11,0.28 0,0.26 0,0.52 0,0.78z"/>
 </g>
</svg>
